
        <svg xmlns="http://www.w3.org/2000/svg" xmlns:xlink="http://www.w3.org/1999/xlink" version="1.1" width="3147.783251231527" height="685.9010382890139" viewBox="0 0 3147.783251231527 685.9010382890139">
			
			<g transform="scale(7.389162561576355) translate(10, 10)">
				<defs id="SvgjsDefs1171"/><g id="SvgjsG1172" featureKey="symbolFeature-0" transform="matrix(0.09537097456369759,0,0,0.09537097456369759,-102.36167165600249,-107.51170428244215)" fill="#fff"><g xmlns="http://www.w3.org/2000/svg"><g><path class="st0" d="M1313.3,1890.9c-143.4-59.2-240-199.5-240-364.6c0-74.8,18.7-146.5,56.1-205.7c34.3-9.4,71.7-12.5,109.1-12.5    l0,0l0,0l0,0l0,0c140.2,0,264.9,56.1,355.3,146.5c84.2,84.2,137.1,193.2,146.5,317.9c-24.9-84.2-68.6-155.8-127.8-215    c-90.4-90.4-215-146.5-355.3-146.5l0,0l0,0l0,0l0,0c-9.4,0-18.7,0-28,0c-18.7,53-28,109.1-28,165.2l0,0v3.1l0,0l0,0    C1201.1,1697.7,1244.7,1806.7,1313.3,1890.9z" style="fill: #ffffff;"/><path class="st0" d="M1472.2,1127.3c218.2,0,398.9,177.6,398.9,398.9c0,106-43.6,202.6-109.1,274.2    c-3.1-140.2-62.3-264.9-152.7-358.4c-96.6-93.5-227.5-152.7-370.9-152.7l0,0l0,0l0,0l0,0c-31.2,0-65.4,3.1-93.5,9.4    C1216.6,1195.9,1335.1,1127.3,1472.2,1127.3z M1241.6,1248.9l33.5,2.8l3.9,0.3c134,9.4,261.8,65.4,358.4,162.1    c77.9,77.9,127.8,174.5,152.7,280.5c24.9-53,40.5-109.1,40.5-168.3c0-199.5-162.1-358.4-358.4-358.4    C1388.1,1167.8,1307,1195.9,1241.6,1248.9z" style="fill: #ffffff;"/></g></g></g><g id="SvgjsG1173" featureKey="textGroupContainer" transform="matrix(1,0,0,1,405,6)" fill="#fff"><rect xmlns="http://www.w3.org/2000/svg" y="0" height="1" width="1" opacity="0"/><rect xmlns="http://www.w3.org/2000/svg" y="0" x="-309" width="3" height="62"/></g><g id="SvgjsG1174" featureKey="nameFeature-0" transform="matrix(1.1188161199152986,0,0,1.1188161199152986,111.7623677601694,8.574206561016418)" fill="#fff"><path d="M2 19.72 l0 -7.72 l4.68 0 l0 7.72 l-4.68 0 z M29.08 12 l4.64 0 l0 28 l-4.64 0 l0 -12.44 l-22.4 0 l0 12.44 l-4.68 0 l0 -16.64 l27.08 0 l0 -11.36 z M41.967999999999996 35.76 l4.68 0 l0 4.24 l-4.68 0 l0 -4.24 z M54.896 40 l5.52 -10.48 l19.4 0.04 l-7.16 -13.56 l-5.28 9.92 l-5.04 0 l7.4 -13.92 l5.8 0 l14.84 28 l-5.08 0 l-3.24 -6.28 l-18.84 0 l-3.24 6.28 l-5.08 0 z M98.624 35.76 l4.68 0 l0 4.24 l-4.68 0 l0 -4.24 z M111.55199999999999 12 l5.16 0 l9.84 18.32 l-2.56 4.76 z M148.152 12 l-15.08 28 l-5.12 0 l15.08 -28 l5.12 0 z M156.39999999999998 35.76 l4.68 0 l0 4.24 l-4.68 0 l0 -4.24 z M169.32799999999997 32.16 l0 -20.16 l24.48 0 l0 4.16 l-19.84 0 l0 7.2 l19.88 0 l0 4.16 l-19.88 0 l0 4.64 l-4.64 0 z M169.32799999999997 40 l0 -4.2 l24.48 0 l0 4.2 l-24.48 0 z M202.09599999999998 35.76 l4.68 0 l0 4.24 l-4.68 0 l0 -4.24 z M215.02399999999997 40 l0 -28 l4.64 0 l0 28 l-4.64 0 z M242.18399999999997 12 l4.64 0 l0 28 l-5.8 0 l-17.72 -19.04 l0 -6.12 l18.88 20.12 l0 -22.96 z"/></g>
			</g>
		</svg>
	